inDegrees=yes
name=ik_Xsens
DataType=double
version=3
OpenSimVersion=4.4-2022-07-23-0e9fedc
endheader
time	pelvis_tilt	pelvis_list	pelvis_rotation	pelvis_tx	pelvis_ty	pelvis_tz	hip_flexion_r	hip_adduction_r	hip_rotation_r	knee_angle_r	knee_angle_r_beta	ankle_angle_r	subtalar_angle_r	mtp_angle_r	hip_flexion_l	hip_adduction_l	hip_rotation_l	knee_angle_l	knee_angle_l_beta	ankle_angle_l	subtalar_angle_l	mtp_angle_l	lumbar_extension	lumbar_bending	lumbar_rotation	arm_flex_r	arm_add_r	arm_rot_r	elbow_flex_r	pro_sup_r	wrist_flex_r	wrist_dev_r	arm_flex_l	arm_add_l	arm_rot_l	elbow_flex_l	pro_sup_l	wrist_flex_l	wrist_dev_l
52.9	0	0	0	0	0.93	0	0	0	0	1.037297713409149e-42	-1.432247796740624e-42	0	0	0	0	0	0	1.037297713409149e-42	-1.432247796740624e-42	0	0	0	0	0	0	-147.2213369141091	-184.7385408844468	-219.3073801550381	-636.8537870679605	-614.2187765930221	0	0	18.48323441017043	-40.82712747550646	-54.74449398568464	-387.9186845303429	-300.9832423529262	0	0
52.91666666666666	0	0	0	0	0.93	0	0	0	0	0	0	0	0	0	0	0	0	0	0	0	0	0	0	0	0	-148.6224867985525	-187.6686824616085	-217.7513250864658	-634.1445953871744	-612.7205074208678	0	0	18.5604560654907	-40.69409341177689	-54.69622574541485	-387.5717472563683	-301.1349772703879	0	0
52.93333333333333	0	0	0	0	0.93	0	0	0	0	1.317348573979848e-38	1.836709923159824e-40	0	0	0	0	0	0	1.317348573979848e-38	1.836709923159824e-40	0	0	0	0	0	0	-149.7908611245182	-189.1935810028186	-215.4707445472791	-633.5381634114456	-612.698461065023	0	0	18.74484019809629	-40.55861251379251	-54.60820226368899	-387.2797437260569	-301.0085560000993	0	0
52.95	1.61178616183315e-28	8.495045700253788e-22	1.133212250876894e-28	9.299446528491688e-24	0.93	4.426098930423057e-23	-1.077613842297402e-35	-2.600386069484567e-21	0	0	-5.207548626483894e-18	-5.846214315429386e-22	6.75862168586293e-22	-2.071758374642425e-19	1.509918500473141e-20	-3.361599397703482e-30	-1.721617018389669e-22	0	-5.207527577723819e-18	-1.43509835862027e-21	-4.806123253003459e-29	4.413695402313463e-20	4.345075222532791e-28	1.765638641861883e-26	1.035927936008262e-23	-150.3472467972426	-190.0621052880747	-214.55337104663	-633.1136138257865	-612.2270518956672	3.315872175936866e-21	3.161839310271827e-19	18.95138003539945	-40.44845694530944	-54.47754501722998	-387.2510173556138	-300.8424233340796	-3.22709130816719e-21	4.943961500140385e-22
52.96666666666667	0	0	0	0	0.93	0	0	0	0	0	-2.16248363619481e-42	0	0	0	0	0	0	3.97003231686091e-40	-6.306866630052936e-42	0	0	0	0	0	0	-151.2229301268391	-190.9700940787978	-213.7512882931104	-632.9076189955621	-611.6317828487871	0	0	19.10871766810443	-40.34855687874956	-54.37923580306782	-387.3186695475959	-300.7711222059461	0	0
52.98333333333333	0	0	0	0	0.93	0	0	0	0	0	3.081487911019577e-33	0	0	0	0	0	0	0	2.465190328815662e-32	0	0	0	0	0	0	-151.5087899840224	-191.1481070032618	-213.5057320427895	-632.9513775554442	-611.3051693362999	0	0	19.20145076759082	-40.29386200100814	-54.37108662938214	-387.4023610725278	-300.6050092255177	0	0
53	0	0	0	0	0.93	0	0	0	0	0	0	0	0	0	0	0	0	0	0	0	0	0	0	0	0	-151.5722775051391	-191.2680040988312	-213.8950969454283	-633.0442406205378	-610.7119913486355	0	0	19.27476157752192	-40.26989849473471	-54.48060616190052	-387.7612668687698	-300.276155869316	0	0
53.01666666666667	0	0	0	0	0.93	0	0	0	0	3.239605985544794e-40	-1.629792313712405e-40	0	0	0	0	0	0	0	0	0	0	0	0	0	0	-151.5470272087501	-191.2382743908133	-215.1584171338915	-633.0376570743161	-609.0590573322239	0	0	19.34112956993683	-40.33845056190714	-54.60571630210495	-388.1000703341265	-299.8874417606751	0	0
53.03333333333333	0	0	0	0	0.93	0	0	0	0	4.388861291461334e-40	-3.291124766140756e-42	0	0	0	0	0	0	4.388861291461334e-40	-3.291124766140756e-42	0	0	0	0	0	0	-151.3966248810747	-191.0627386618858	-215.9299893597963	-633.0487984928063	-608.1668038882367	0	0	19.37567059411853	-40.42693251335945	-54.65207172104509	-388.4105472034838	-299.5643001677514	0	0
53.05	0	0	0	0	0.93	0	0	0	0	7.352414733758324e-40	-3.291124766140756e-42	0	0	0	0	0	0	7.352414733758324e-40	-3.291124766140756e-42	0	0	0	0	0	0	-151.3579684229088	-190.837762091599	-216.7057566400415	-632.9972975193652	-607.3907334518284	0	0	19.37953916546117	-40.45276426978275	-54.60890649797646	-388.5372611253645	-299.4798225811217	0	0
53.06666666666666	0	0	0	0	0.93	0	0	0	0	0	0	0	0	0	0	0	0	0	0	0	0	0	0	0	0	-151.142582247599	-192.3261715275616	-220.2137731882607	-629.5928338681628	-601.6936787707185	0	0	19.33365485382023	-40.5137318331032	-54.53540671411584	-388.667511832151	-299.3621607699815	0	0
